<svg width="25" height="25" viewBox="0 0 25 25" fill="none" xmlns="http://www.w3.org/2000/svg">
<g opacity="0.78">
<path d="M1.31371 3.65447C0.667323 3.00808 0.667323 1.96009 1.31371 1.3137C1.96009 0.667317 3.00809 0.667318 3.65448 1.3137L23.9411 21.6004C24.5875 22.2467 24.5875 23.2947 23.9411 23.9411C23.2947 24.5875 22.2467 24.5875 21.6004 23.9411L1.31371 3.65447Z" fill="#1F3C67"/>
<path d="M3.65448 23.9411C3.00809 24.5875 1.96009 24.5875 1.31371 23.9411C0.667323 23.2947 0.667324 22.2467 1.31371 21.6004L21.6004 1.3137C22.2467 0.667316 23.2947 0.667316 23.9411 1.3137C24.5875 1.96009 24.5875 3.00808 23.9411 3.65447L3.65448 23.9411Z" fill="#1F3C67"/>
</g>
</svg>
