<svg width="43" height="30" viewBox="0 0 43 30" fill="none" xmlns="http://www.w3.org/2000/svg">
<path d="M15.5278 0.0478516C13.2957 0.0478516 11.4443 1.22009 10.9142 2.80403C10.8545 2.80403 10.8097 2.7926 10.75 2.7926C8.11476 2.7926 5.97222 4.43372 5.97222 6.45226C5.97222 6.72673 6.01701 6.99549 6.09913 7.25281C3.91927 7.93899 2.38889 9.5744 2.38889 11.4843C2.38889 12.2048 2.62778 12.8738 3.00851 13.4799C1.21684 14.2691 0 15.7329 0 17.4312C0 19.3354 1.52292 20.9708 3.68785 21.657C3.62066 21.92 3.58333 22.1888 3.58333 22.4633C3.58333 24.7391 5.98715 26.5804 8.95833 26.5804C9.26441 26.5804 9.56302 26.5518 9.85417 26.5118C10.5708 28.1415 12.5566 29.3251 14.9306 29.3251C17.9017 29.3251 20.3056 27.4839 20.3056 25.208V3.70751C20.3056 1.68898 18.163 0.0478516 15.5278 0.0478516ZM43 17.4312C43 15.7329 41.7832 14.2691 39.9915 13.4799C40.3797 12.8738 40.6111 12.2048 40.6111 11.4843C40.6111 9.5744 39.0807 7.93899 36.9009 7.25281C36.9755 6.99549 37.0278 6.72673 37.0278 6.45226C37.0278 4.43372 34.8852 2.7926 32.25 2.7926C32.1903 2.7926 32.138 2.80403 32.0858 2.80403C31.5557 1.22009 29.7043 0.0478516 27.4722 0.0478516C24.837 0.0478516 22.6944 1.68326 22.6944 3.70751V25.208C22.6944 27.4839 25.0983 29.3251 28.0694 29.3251C30.4434 29.3251 32.4292 28.1415 33.1458 26.5118C33.437 26.5518 33.7356 26.5804 34.0417 26.5804C37.0128 26.5804 39.4167 24.7391 39.4167 22.4633C39.4167 22.1888 39.3793 21.92 39.3121 21.657C41.4771 20.9708 43 19.3354 43 17.4312Z" fill="#032954"/>
</svg>
