<svg width="1269" height="575" viewBox="0 0 1269 575" fill="none" xmlns="http://www.w3.org/2000/svg">
<path d="M1269 292L1269 575L865 575L865 494C865 382.438 955.438 292 1067 292L1269 292Z" fill="#43B0EF"/>
<path d="M0 392H67.5C131.289 392 183 443.711 183 507.5L183 575H0L0 392Z" fill="#032954"/>
<path d="M0.000244141 117C64.6176 117 117 64.6173 117 0L0.000244141 0L0.000244141 117Z" fill="#43B0EF"/>
<path d="M1067 138C1067 249.562 1157.44 340 1269 340L1269 138L1067 138Z" fill="#032954"/>
<path d="M1.00024 59C33.585 59 60.0002 32.5848 60.0002 0L1.00024 0L1.00024 59Z" fill="#032954"/>
</svg>
