<svg width="18" height="18" viewBox="0 0 18 18" fill="none" xmlns="http://www.w3.org/2000/svg">
<path d="M17.28 0.386719H0.72C0.32175 0.386719 0 0.700273 0 1.08838V17.2266C0 17.6147 0.32175 17.9282 0.72 17.9282H17.28C17.6783 17.9282 18 17.6147 18 17.2266V1.08838C18 0.700273 17.6783 0.386719 17.28 0.386719ZM15.201 5.50665H13.7633C12.636 5.50665 12.4178 6.0285 12.4178 6.79595V8.48651H15.1088L14.7578 11.1331H12.4178V17.9282H9.612V11.1353H7.26525V8.48651H9.612V6.53502C9.612 4.26997 11.0318 3.03549 13.1063 3.03549C14.1008 3.03549 14.9535 3.10784 15.2033 3.14073V5.50665H15.201Z" fill="#032954"/>
</svg>
