<svg width="1267" height="575" viewBox="0 0 1267 575" fill="none" xmlns="http://www.w3.org/2000/svg">
<path d="M984 0L1267 0V404H1186C1074.44 404 984 313.562 984 202V0Z" fill="#43B0EF"/>
<path d="M0 392H67.5C131.289 392 183 443.711 183 507.5L183 575H0L0 392Z" fill="#032954"/>
<path d="M0.000244141 117C64.6176 117 117 64.6173 117 0L0.000244141 0L0.000244141 117Z" fill="#43B0EF"/>
<path d="M1213 339C1148.38 339 1096 391.383 1096 456L1213 456L1213 339Z" fill="#032954"/>
<path d="M1.00024 59C33.585 59 60.0002 32.5848 60.0002 0L1.00024 0L1.00024 59Z" fill="#032954"/>
</svg>
