<svg width="27" height="27" viewBox="0 0 27 27" fill="none" xmlns="http://www.w3.org/2000/svg">
<path d="M13.389 0.519287C20.557 0.519287 26.3698 6.33207 26.3698 13.5001C26.3698 20.668 20.557 26.4808 13.389 26.4808C6.221 26.4808 0.408213 20.668 0.408213 13.5001C0.408213 6.33207 6.221 0.519287 13.389 0.519287ZM5.98014 16.5731C6.01619 17.3666 6.14236 17.9083 6.32657 18.3825C6.7138 19.3837 7.50529 20.1752 8.50654 20.5625C8.98052 20.7467 9.52244 20.8726 10.3157 20.9089C11.1106 20.9451 11.3645 20.9539 13.3888 20.9539C15.4133 20.9539 15.667 20.9451 16.4621 20.9089C17.2553 20.8726 17.7972 20.7467 18.2712 20.5625C18.7688 20.3753 19.2192 20.0819 19.5916 19.7026C19.9707 19.3305 20.264 18.8799 20.4512 18.3825C20.6354 17.9085 20.7616 17.3666 20.7976 16.5733C20.8343 15.7783 20.8428 15.5243 20.8428 13.5001C20.8428 11.4758 20.8343 11.2218 20.7978 10.427C20.7618 9.63352 20.6358 9.09179 20.4516 8.61761C20.2644 8.12025 19.9709 7.66964 19.5916 7.29747C19.2194 6.91816 18.7688 6.62482 18.2714 6.43764C17.7972 6.25344 17.2555 6.12746 16.4621 6.09122C15.6672 6.05497 15.4133 6.04626 13.389 6.04626C11.3647 6.04626 11.1108 6.05497 10.3159 6.09142C9.52244 6.12746 8.98072 6.25344 8.50654 6.43745C8.00918 6.62462 7.55857 6.91816 7.1862 7.29747C6.80709 7.66984 6.51355 8.12025 6.32657 8.61761C6.14216 9.09179 6.01619 9.63352 5.97994 10.427C5.9437 11.2218 5.93518 11.4758 5.93518 13.5001C5.93518 15.5243 5.9437 15.7783 5.98014 16.5731Z" fill="white"/>
</svg>
