<svg width="1270" height="547" viewBox="0 0 1270 547" fill="none" xmlns="http://www.w3.org/2000/svg">
<path d="M1270 547L914 547L914 39L1068 39C1179.56 39 1270 129.439 1270 241L1270 547Z" fill="#43B0EF"/>
<path d="M0 392H67.5C131.289 392 183 443.711 183 507.5L183 547H0L0 392Z" fill="#032954"/>
<path d="M0.000244141 117C64.6176 117 117 64.6173 117 0L0.000244141 0L0.000244141 117Z" fill="#43B0EF"/>
<path d="M962 430C897.383 430 845 482.383 845 547L962 547L962 430Z" fill="#032954"/>
<path d="M1.00024 59C33.585 59 60.0002 32.5848 60.0002 0L1.00024 0L1.00024 59Z" fill="#032954"/>
</svg>
