<svg width="20" height="16" viewBox="0 0 20 16" fill="none" xmlns="http://www.w3.org/2000/svg">
<path d="M18 0.00878906H2C0.9 0.00878906 0 0.885882 0 1.95789V13.6525C0 14.7245 0.9 15.6016 2 15.6016H18C19.1 15.6016 20 14.7245 20 13.6525V1.95789C20 0.885882 19.1 0.00878906 18 0.00878906ZM17.6 4.15062L11.06 8.13652C10.41 8.53609 9.59 8.53609 8.94 8.13652L2.4 4.15062C2.29973 4.09576 2.21192 4.02165 2.14189 3.93276C2.07186 3.84388 2.02106 3.74207 1.99258 3.6335C1.96409 3.52492 1.9585 3.41185 1.97616 3.30111C1.99381 3.19038 2.03434 3.08428 2.09528 2.98925C2.15623 2.89422 2.23632 2.81223 2.33073 2.74824C2.42513 2.68425 2.53187 2.63959 2.6445 2.61697C2.75712 2.59435 2.87328 2.59423 2.98595 2.61663C3.09863 2.63903 3.20546 2.68347 3.3 2.74727L10 6.83063L16.7 2.74727C16.7945 2.68347 16.9014 2.63903 17.014 2.61663C17.1267 2.59423 17.2429 2.59435 17.3555 2.61697C17.4681 2.63959 17.5749 2.68425 17.6693 2.74824C17.7637 2.81223 17.8438 2.89422 17.9047 2.98925C17.9657 3.08428 18.0062 3.19038 18.0238 3.30111C18.0415 3.41185 18.0359 3.52492 18.0074 3.6335C17.9789 3.74207 17.9281 3.84388 17.8581 3.93276C17.7881 4.02165 17.7003 4.09576 17.6 4.15062Z" fill="#032954"/>
</svg>
