<svg width="30" height="40" viewBox="0 0 30 40" fill="none" xmlns="http://www.w3.org/2000/svg">
<path d="M4.28571 35.7895C1.92857 35.7895 0 37.6842 0 40H30C30 37.6842 28.0714 35.7895 25.7143 35.7895H17.1429V31.5789H23.5714C25.9286 31.5789 27.8571 29.6842 27.8571 27.3684H10.7143C7.15714 27.3684 4.28571 24.5474 4.28571 21.0526C4.28571 18.7579 5.55 16.7579 7.41429 15.6632C6.79286 14.8 6.42857 13.7684 6.42857 12.6316C6.42857 12.1895 6.51429 11.7474 6.62143 11.3263C4.66375 12.1243 2.9903 13.4738 1.81197 15.2047C0.633646 16.9355 0.00317132 18.9703 0 21.0526C0 26.8632 4.8 31.5789 10.7143 31.5789V35.7895H4.28571Z" fill="#032954"/>
<path d="M11.9143 7.38947C14.8071 7.45263 17.1429 9.76842 17.1429 12.6316C17.1429 14.2105 16.4357 15.6 15.3214 16.5684L16.5857 19.9789L18.6 19.2632L19.3286 21.2421L23.3571 19.8105L22.6286 17.8316L24.6429 17.1158L18.7714 1.26316L16.7571 1.97895L16.0286 0L12 1.43158L12.7286 3.41053L10.7143 4.14737L11.9143 7.38947Z" fill="#032954"/>
<path d="M11.7857 15.7895C13.5609 15.7895 15 14.3756 15 12.6316C15 10.8875 13.5609 9.47368 11.7857 9.47368C10.0105 9.47368 8.57143 10.8875 8.57143 12.6316C8.57143 14.3756 10.0105 15.7895 11.7857 15.7895Z" fill="#032954"/>
</svg>
