<svg width="18" height="18" viewBox="0 0 18 18" fill="none" xmlns="http://www.w3.org/2000/svg">
<path d="M0.51272 14.0095L4.57772 10.4079C4.76987 10.2377 5.02238 10.147 5.28191 10.1548C5.54145 10.1626 5.78772 10.2684 5.96872 10.4498L8.36172 12.848C8.93772 12.7408 10.0957 12.389 11.2877 11.2304C12.4797 10.0678 12.8407 8.93646 12.9477 8.37907L10.4887 6.04619C10.3023 5.86993 10.1936 5.62991 10.1856 5.37693C10.1775 5.12394 10.2708 4.87784 10.4457 4.6907L14.1407 0.730459C14.3157 0.542734 14.5588 0.428865 14.8186 0.413035C15.0783 0.397205 15.3341 0.480662 15.5317 0.64568L17.7017 2.45917C17.8746 2.62825 17.9778 2.85329 17.9917 3.0916C18.0067 3.33521 18.2927 9.10602 13.7007 13.5827C9.69472 17.4855 4.67672 17.771 3.29472 17.771C3.09272 17.771 2.96872 17.7652 2.93572 17.7632C2.69121 17.7499 2.46039 17.6489 2.28772 17.4796L0.427719 15.3641C0.257708 15.1721 0.171434 14.923 0.187315 14.6699C0.203197 14.4169 0.319977 14.1799 0.51272 14.0095Z" fill="#032954"/>
</svg>
