<svg width="51" height="26" viewBox="0 0 51 26" fill="none" xmlns="http://www.w3.org/2000/svg">
<path d="M25.5 14.625C28.9638 14.625 32.0238 15.47 34.51 16.575C36.805 17.615 38.25 19.955 38.25 22.49V26H12.75V22.5117C12.75 19.955 14.195 17.615 16.49 16.5967C18.9763 15.47 22.0363 14.625 25.5 14.625ZM8.5 15.1667C10.8375 15.1667 12.75 13.2167 12.75 10.8333C12.75 8.45 10.8375 6.5 8.5 6.5C6.1625 6.5 4.25 8.45 4.25 10.8333C4.25 13.2167 6.1625 15.1667 8.5 15.1667ZM10.9013 17.55C10.115 17.42 9.32875 17.3333 8.5 17.3333C6.39625 17.3333 4.39875 17.7883 2.5925 18.59C1.82264 18.9255 1.16646 19.4843 0.705539 20.197C0.244615 20.9096 -0.000730333 21.7447 1.63305e-06 22.5983V26H9.5625V22.5117C9.5625 20.7133 10.0513 19.0233 10.9013 17.55ZM42.5 15.1667C44.8375 15.1667 46.75 13.2167 46.75 10.8333C46.75 8.45 44.8375 6.5 42.5 6.5C40.1625 6.5 38.25 8.45 38.25 10.8333C38.25 13.2167 40.1625 15.1667 42.5 15.1667ZM51 22.5983C51 20.8433 49.98 19.2833 48.4075 18.59C46.5442 17.761 44.533 17.3332 42.5 17.3333C41.6712 17.3333 40.885 17.42 40.0988 17.55C40.9487 19.0233 41.4375 20.7133 41.4375 22.5117V26H51V22.5983ZM25.5 0C29.0275 0 31.875 2.90333 31.875 6.5C31.875 10.0967 29.0275 13 25.5 13C21.9725 13 19.125 10.0967 19.125 6.5C19.125 2.90333 21.9725 0 25.5 0Z" fill="#032954"/>
</svg>
