<svg width="1270" height="553" viewBox="0 0 1270 553" fill="none" xmlns="http://www.w3.org/2000/svg">
<path d="M1270 270L1270 553L866 553L866 472C866 360.438 956.438 270 1068 270L1270 270Z" fill="#43B0EF"/>
<path d="M0 392H67.5C131.289 392 183 443.711 183 507.5L183 553H0L0 392Z" fill="#032954"/>
<path d="M1267 138C1174.22 138 1099 213.216 1099 306L1267 306L1267 138Z" fill="#032954"/>
<path d="M0.000244141 117C64.6176 117 117 64.6173 117 0L0.000244141 0L0.000244141 117Z" fill="#43B0EF"/>
<path d="M1.00024 59C33.585 59 60.0002 32.5848 60.0002 0L1.00024 0L1.00024 59Z" fill="#032954"/>
</svg>
